<?xml version="1.0" encoding="UTF-8" standalone="no"?>
<svg
   xmlns:dc="http://purl.org/dc/elements/1.1/"
   xmlns:cc="http://creativecommons.org/ns#"
   xmlns:rdf="http://www.w3.org/1999/02/22-rdf-syntax-ns#"
   xmlns:svg="http://www.w3.org/2000/svg"
   xmlns="http://www.w3.org/2000/svg"
   xmlns:xlink="http://www.w3.org/1999/xlink"
   xmlns:sodipodi="http://sodipodi.sourceforge.net/DTD/sodipodi-0.dtd"
   xmlns:inkscape="http://www.inkscape.org/namespaces/inkscape"
   viewBox="0 0 663.1104 828.53453"
   height="828.53455"
   width="663.11035"
   xml:space="preserve"
   id="svg2"
   version="1.1"
   sodipodi:docname="Lotte_Mart_2018_stacked.svg"
   inkscape:version="0.92.3 (2405546, 2018-03-11)"><sodipodi:namedview
     pagecolor="#ffffff"
     bordercolor="#666666"
     borderopacity="1"
     objecttolerance="10"
     gridtolerance="10"
     guidetolerance="10"
     inkscape:pageopacity="0"
     inkscape:pageshadow="2"
     inkscape:window-width="1366"
     inkscape:window-height="745"
     id="namedview109"
     showgrid="false"
     fit-margin-top="0"
     fit-margin-left="0"
     fit-margin-right="0"
     fit-margin-bottom="0"
     inkscape:zoom="0.29823618"
     inkscape:cx="14.263518"
     inkscape:cy="263.54733"
     inkscape:window-x="-8"
     inkscape:window-y="-8"
     inkscape:window-maximized="1"
     inkscape:current-layer="g12"
     showguides="true"
     inkscape:guide-bbox="true"><sodipodi:guide
       position="613.93047,958.26101"
       orientation="0,1"
       id="guide1059"
       inkscape:locked="false" /></sodipodi:namedview><metadata
     id="metadata8"><rdf:RDF><cc:Work
         rdf:about=""><dc:format>image/svg+xml</dc:format><dc:type
           rdf:resource="http://purl.org/dc/dcmitype/StillImage" /><dc:title></dc:title></cc:Work></rdf:RDF></metadata><defs
     id="defs6"><rect
       id="SVGID_1_"
       x="0.1"
       y="0.1"
       width="20.1"
       height="20.1" /><rect
       height="20.1"
       width="20.1"
       y="0.1"
       x="0.1"
       id="rect853" /></defs><g
     transform="matrix(1.3333333,0,0,-1.3333333,7.6751846,1173.8935)"
     id="g10"><g
       transform="scale(0.1)"
       id="g12"><path
         id="path1217"
         style="fill:#ed1c24;fill-opacity:1;stroke-width:5.34390354"
         d="m 349.41583,4481.5708 c -59.88913,3.5358 -85.14018,27.2797 -85.14018,95.9824 v 670.1479 H -17.782194 v -730.9273 c 0,-113.1968 69.462572,-136.915 132.830834,-139.4442 h 640.83972 v 104.2412 H 349.41583 M 4444.88,5145.1633 h 470.8838 v 102.7185 h -705.0927 c -63.3418,-2.6325 -132.81,-26.3507 -132.81,-139.4701 v -591.6379 c 0,-113.0936 69.4682,-136.7601 132.81,-139.4442 h 705.0927 v 102.7959 H 4444.88 c -59.8632,3.639 -85.0442,28.725 -85.0442,97.4277 v 235.8138 h 547.9064 v 101.841 h -547.9064 v 132.3985 c 0,68.9092 25.181,93.9952 85.0442,97.5568 m -457.3069,102.6152 h -997.3995 v -104.809 h 356.8427 v -766.311 h 282.9093 v 766.311 h 357.6475 v 104.809 m -1087.7913,0 h -997.4644 v -104.809 h 356.9466 v -766.311 h 282.9794 v 766.311 h 357.5384 v 104.809 M 1321.0709,4439.6317 c -164.8444,0 -290.2222,165.8723 -290.2222,370.5092 0,204.8176 125.3778,370.5867 290.2222,370.5867 164.9976,0 290.3546,-165.7691 290.3546,-370.5867 0,-204.6369 -125.357,-370.5092 -290.3546,-370.5092 z m 0,842.7821 c -356.62201,0 -570.32257,-211.5537 -570.32257,-472.2729 0,-260.7191 213.70056,-472.0921 570.32257,-472.0921 356.9361,0 570.6576,211.373 570.6576,472.0921 0,260.7192 -213.7215,472.2729 -570.6576,472.2729"
         inkscape:connector-curvature="0" /><path
         id="path1057"
         style="fill:#ed1c24;fill-opacity:1;stroke-width:6.73777485"
         d="m -53.649135,2633.7481 c 2.153157,12.036 46.4998387,323.3697 98.548195,691.8531 52.048484,368.4829 96.19162,676.7875 98.09682,685.1198 l 3.46338,15.1501 h 214.7308 214.73067 l 24.38906,-69.017 c 13.41434,-37.9592 79.00704,-227.8014 145.76212,-421.872 66.75585,-194.0702 122.85756,-354.337 124.6719,-356.1486 4.15321,-4.1477 -11.49681,-45.7472 162.87239,432.9357 l 149.6186,410.7352 216.3824,1.7767 c 119.0106,0.9769 216.5317,0.9769 216.7135,0 0.1821,-0.9768 43.4406,-318.4136 96.1309,-705.4132 l 95.7991,-703.6365 -211.7749,-1.7795 c -116.4768,-0.9785 -213.1341,-0.422 -214.7946,1.2361 -1.6607,1.6584 -29.2632,192.3566 -61.3377,423.774 -32.0752,231.417 -59.9125,422.3334 -61.8603,424.2581 -1.9472,1.9249 -66.9176,-172.8227 -144.3772,-388.3277 -77.4597,-215.5051 -146.82738,-407.7349 -154.15007,-427.1777 l -13.31461,-35.35 H 806.79065 666.92947 l -60.63737,176.7509 c -33.35065,97.2128 -98.17832,286.4197 -144.06097,420.46 -45.88266,134.0398 -85.28197,241.6054 -87.55474,239.0342 -2.27212,-2.5709 -30.98778,-191.778 -63.81288,-420.4599 L 251.1824,2611.8647 H 96.809322 -57.563886 Z M 4461.6892,2602.1215 c -64.1811,13.9005 -136.702,50.8733 -175.2007,89.3215 -39.3264,39.2749 -63.6798,84.6915 -83.1413,155.0517 -13.1344,47.4829 -14.5583,74.054 -18.1,337.7059 l -5.2573,281.3425 -148.8735,-0.5581 c -170.8343,-0.6407 -209.3832,-0.9558 -283.105,-35.9719 -57.3733,-27.2511 -109.7782,-76.2521 -139.6947,-130.6203 l -20.2266,-36.7585 -1.931,-324.8848 -1.9315,-324.8848 h -191.9065 -191.9068 v 555.5024 555.5027 h 192.1523 192.1524 v -71.3244 -71.3243 l 35.1546,31.5654 c 43.2678,38.8509 111.6034,73.907 179.6805,92.1768 43.1136,11.5706 78.6038,14.3628 218.3506,17.1791 l 166.8692,3.3631 v 150.6828 150.6828 l 133.1582,-0.044 c 73.237,-0.019 158.1885,-1.986 188.7814,-4.3651 l 55.6228,-4.3238 v -147.1366 -147.1355 h 138.2148 138.215 v -124.428 l 0.7065,-132.8942 -132.2908,-1e-4 h -141.4744 l -2.0011,-217.38 c -2.6339,-286.1245 4.2026,-324.0068 64.7061,-361.5789 22.2485,-13.8153 34.9633,-15.7412 117.6485,-17.8186 l 92.7052,-2.329 v -137.3838 -137.3883 l -166.8693,0.5354 c -115.6285,0.3709 -180.1767,3.4175 -210.2076,9.9216 z M 2541.9458,2856.261 c 45.1282,20.6336 82.2183,53.1585 100.6555,88.2677 12.5889,23.9719 14.517,38.9705 14.7728,114.8976 l 0.2967,87.3266 -57.3088,-2.0233 c -124.831,-4.4068 -218.7461,-31.7091 -266.2475,-77.4006 -75.1304,-72.2687 -48.9943,-191.5648 48.841,-222.9307 44.1248,-14.1463 113.4143,-8.9766 158.9929,11.8627 z M 2262.248,2592.4848 c -253.4598,20.5786 -410.6139,232.5237 -333.1891,455.548 72.4202,207.7096 318.7079,273.577 483.1509,292.4344 66.9617,7.3063 141.0371,10.6282 223.7571,12.5785 4.665,2.7396 5.5083,24.2329 5.445,32.1031 -0.1956,24.4189 -14.1244,50.693 -34.1911,69.1163 -75.9663,69.7441 -307.0797,70.7898 -484.2205,-2.1937 -27.0766,-11.156 -50.0904,-19.1778 -51.1428,-17.8265 -1.0517,1.3513 -17.1266,49.9308 -35.7222,107.9546 l -33.81,105.4977 52.0929,20.5587 c 136.3889,53.8247 289.4434,77.9696 461.6637,72.828 190.7022,-5.6927 298.6462,-43.1519 391.252,-135.7735 54.1277,-54.1367 84.4122,-106.5959 105.8348,-183.3281 14.1399,-50.6461 14.779,-66.7811 17.0969,-431.366 l 2.4071,-378.7516 h -185.8168 -185.8167 v 47.1335 c 0,25.9234 -1.4908,47.1335 -3.3126,47.1335 -1.8224,0 -17.4845,-10.8031 -34.8051,-24.0068 -90.7648,-69.1919 -219.2426,-101.123 -360.6735,-89.6401 z"
         inkscape:connector-curvature="0" /><g
         transform="matrix(97.273252,0,0,-97.273252,7604.3642,27526.923)"
         style="clip-rule:evenodd;fill-rule:evenodd"
         id="g8"><g
           id="g831"
           transform="matrix(0.43854429,0,0,0.43140762,-3.7257746,142.85182)"><g
             transform="matrix(0.51958404,0,0,0.53913426,20.692173,43.777536)"
             id="g876"><g
               id="g842"
               transform="matrix(6.546711,0,0,6.4532027,-323.1657,131.51083)"><defs
                 id="defs831"><rect
                   height="20.1"
                   width="20.1"
                   y="0.1"
                   x="0.1"
                   id="rect1175" /></defs><clipPath
                 id="SVGID_2_"><use
                   id="use833"
                   style="overflow:visible"
                   xlink:href="#SVGID_1_"
                   x="0"
                   y="0"
                   width="100%"
                   height="100%" /></clipPath><path
                 id="path836-2"
                 clip-path="url(#SVGID_2_)"
                 d="m 14.3,18.5 c -2.3,2.3 -6,2.3 -8.3,0 L 1.8,14.3 C -0.5,12 -0.5,8.3 1.8,6 L 6,1.8 c 2.3,-2.3 6,-2.3 8.3,0 L 18.5,6 c 2.3,2.3 2.3,6 0,8.3 z"
                 class="st0"
                 inkscape:connector-curvature="0"
                 style="fill:#ed1d24" /><path
                 id="path838"
                 clip-path="url(#SVGID_2_)"
                 d="m 7.7,16.3 c -0.3,0 -0.6,-0.3 -0.6,-0.6 0,-0.2 0.1,-0.3 0.2,-0.4 0.1,-0.1 0.3,-0.2 0.4,-0.2 0.3,0 0.6,0.3 0.6,0.6 0,0.3 -0.3,0.6 -0.6,0.6 0,0 0,0 0,0"
                 class="st1"
                 inkscape:connector-curvature="0"
                 style="fill:#ffffff" /><path
                 id="path840"
                 clip-path="url(#SVGID_2_)"
                 d="M 9.9,4.9 C 9.6,4.9 9.3,5 9.1,5.2 8.6,5.7 8.4,6.6 8.4,7.9 c 0,1.6 0.4,4.7 1.7,6.4 0.2,0.3 0.4,0.5 0.7,0.6 0.2,0.1 0.5,0.3 0.9,0.3 0.1,0 0.2,0 0.3,0 0.7,-0.2 1.6,-1 2.3,-2 0.1,-0.2 0.3,-0.3 0.5,-0.3 0.1,0 0.2,0 0.3,0.1 0.1,0.1 0.2,0.2 0.2,0.3 0,0.1 0,0.3 -0.1,0.4 -0.9,1.4 -2,2.3 -3,2.5 0,0 0,0 0,0 -0.2,0 -0.4,0.1 -0.6,0.1 -0.7,0 -1.1,-0.3 -1.5,-0.5 C 9.8,15.6 9.5,15.3 9.2,14.9 7.4,12.6 7.3,8.3 7.3,7.9 7.3,6.8 7.4,5.2 8.3,4.3 8.7,3.9 9.3,3.7 9.9,3.7 H 10 c 0.6,0 1.2,0.2 1.6,0.6 0.9,0.9 1.1,2.4 1,3.6 0,1.2 -0.2,3.5 -1.5,5.5 -0.1,0.2 -0.3,0.3 -0.5,0.3 -0.1,0 -0.2,0 -0.3,-0.1 C 10,13.4 10,13.1 10.1,12.8 11,11.4 11.4,9.8 11.4,7.8 11.4,6.5 11.2,5.5 10.7,5.1 10.6,5 10.4,4.9 9.9,4.9 Z"
                 class="st1"
                 inkscape:connector-curvature="0"
                 style="fill:#ffffff" /></g></g></g></g></g></g><style
     type="text/css"
     id="style828">
	.st0{clip-path:url(#SVGID_2_);fill:#ED1D24;}
	.st1{clip-path:url(#SVGID_2_);fill:#FFFFFF;}
</style></svg>